<svg width="24.000000" height="24.000000" viewBox="0 0 24 24" fill="none" xmlns="http://www.w3.org/2000/svg" xmlns:xlink="http://www.w3.org/1999/xlink">
	<desc>
			Created with Pixso.
	</desc>
	<defs>
		<clipPath id="clip1_14">
			<rect id="instagram" width="24.000000" height="24.000000" fill="white" fill-opacity="0"/>
		</clipPath>
	</defs>
	<rect id="instagram" width="24.000000" height="24.000000" fill="#FFFFFF" fill-opacity="0"/>
	<g clip-path="url(#clip1_14)">
		<path id="Vector" d="M23.9765 7.05615C23.9203 5.78076 23.7141 4.90405 23.4187 4.14453C23.1139 3.33813 22.6451 2.61621 22.0308 2.01611C21.4307 1.40649 20.704 0.932861 19.907 0.633057C19.1429 0.337646 18.2708 0.131348 16.9956 0.0751953C15.7108 0.0141602 15.303 0 12.0445 0C8.78607 0 8.37821 0.0141602 7.09824 0.0703125C5.82303 0.126465 4.94633 0.333008 4.18684 0.628174C3.38029 0.932861 2.65835 1.40186 2.05819 2.01611C1.4487 2.61621 0.975281 3.34277 0.67511 4.13989C0.379704 4.90405 0.173489 5.77612 0.117264 7.05127C0.0562782 8.33594 0.0421753 8.7439 0.0421753 12.0024C0.0421753 15.2607 0.0562782 15.6687 0.112503 16.9487C0.168724 18.2239 0.375126 19.1006 0.670532 19.8601C0.975281 20.6665 1.4487 21.3884 2.05819 21.9888C2.65835 22.5981 3.38505 23.0718 4.18208 23.3718C4.94633 23.6672 5.81826 23.8733 7.09366 23.9297C8.37345 23.9861 8.78149 24 12.0399 24C15.2984 24 15.7062 23.9861 16.9862 23.9297C18.2614 23.8733 19.1381 23.6672 19.8976 23.3718C21.5105 22.748 22.7858 21.4729 23.4093 19.8601C23.7046 19.0959 23.911 18.2239 23.9672 16.9487C24.0234 15.6687 24.0375 15.2607 24.0375 12.0024C24.0375 8.7439 24.0328 8.33594 23.9765 7.05615ZM21.8153 16.8547C21.7636 18.0269 21.5668 18.6599 21.4027 19.0818C20.9994 20.1274 20.1696 20.9573 19.124 21.3606C18.7021 21.5247 18.0646 21.7214 16.897 21.7729C15.6312 21.8293 15.2515 21.8433 12.0493 21.8433C8.84705 21.8433 8.46264 21.8293 7.20135 21.7729C6.02924 21.7214 5.39631 21.5247 4.97435 21.3606C4.45405 21.1682 3.98044 20.8635 3.59603 20.4648C3.19751 20.0757 2.89277 19.6069 2.70047 19.0867C2.53638 18.6646 2.3395 18.0269 2.28804 16.8596C2.23163 15.5938 2.21771 15.2139 2.21771 12.0117C2.21771 8.80957 2.23163 8.42505 2.28804 7.16382C2.3395 5.99194 2.53638 5.35889 2.70047 4.93701C2.89277 4.4165 3.19751 3.94312 3.60079 3.55835C3.98978 3.15991 4.45863 2.85522 4.97911 2.66309C5.40107 2.49902 6.03877 2.302 7.20611 2.25049C8.47198 2.19434 8.85181 2.18018 12.0539 2.18018C15.2608 2.18018 15.6405 2.19434 16.9018 2.25049C18.0739 2.302 18.7068 2.49902 19.1288 2.66309C19.6491 2.85522 20.1227 3.15991 20.5071 3.55835C20.9056 3.94751 21.2104 4.4165 21.4027 4.93701C21.5668 5.35889 21.7636 5.99634 21.8153 7.16382C21.8715 8.42969 21.8856 8.80957 21.8856 12.0117C21.8856 15.2139 21.8715 15.5889 21.8153 16.8547Z" fill="#FFFFFF" fill-opacity="1.000000" fill-rule="nonzero"/>
		<path id="Vector" d="M12.0445 5.83716C8.6408 5.83716 5.87921 8.59863 5.87921 12.0024C5.87921 15.4062 8.6408 18.1677 12.0445 18.1677C15.4483 18.1677 18.2097 15.4062 18.2097 12.0024C18.2097 8.59863 15.4483 5.83716 12.0445 5.83716ZM12.0445 16.0017C9.83634 16.0017 8.04522 14.2107 8.04522 12.0024C8.04522 9.79419 9.83634 8.00317 12.0445 8.00317C14.2528 8.00317 16.0437 9.79419 16.0437 12.0024C16.0437 14.2107 14.2528 16.0017 12.0445 16.0017Z" fill="#FFFFFF" fill-opacity="1.000000" fill-rule="nonzero"/>
		<path id="Vector" d="M19.893 5.59302C19.893 6.38794 19.2486 7.03247 18.4535 7.03247C17.6587 7.03247 17.0142 6.38794 17.0142 5.59302C17.0142 4.7981 17.6587 4.15381 18.4535 4.15381C19.2486 4.15381 19.893 4.7981 19.893 5.59302Z" fill="#FFFFFF" fill-opacity="1.000000" fill-rule="nonzero"/>
	</g>
</svg>
