<svg width="24.000000" height="24.000000" viewBox="0 0 24 24" fill="none" xmlns="http://www.w3.org/2000/svg" xmlns:xlink="http://www.w3.org/1999/xlink">
	<desc>
			Created with Pixso.
	</desc>
	<defs>
		<clipPath id="clip1_10">
			<rect id="pinterest" width="24.000000" height="24.000000" fill="white" fill-opacity="0"/>
		</clipPath>
	</defs>
	<rect id="pinterest" width="24.000000" height="24.000000" fill="#FFFFFF" fill-opacity="0"/>
	<g clip-path="url(#clip1_10)">
		<path id="Vector" d="M12.326 0C5.74699 0.000976562 2.25 4.21606 2.25 8.81201C2.25 10.9431 3.44099 13.6021 5.34801 14.4451C5.892 14.6899 5.82001 14.3911 6.28799 12.6011C6.325 12.4519 6.306 12.323 6.186 12.1841C3.46001 9.03101 5.65401 2.54907 11.937 2.54907C21.03 2.54907 19.331 15.1311 13.519 15.1311C12.021 15.1311 10.905 13.9551 11.258 12.5C11.686 10.7671 12.524 8.90405 12.524 7.65503C12.524 4.50708 7.834 4.97412 7.834 9.14502C7.834 10.4341 8.28999 11.304 8.28999 11.304C8.28999 11.304 6.78101 17.3999 6.50101 18.5391C6.02699 20.467 6.565 23.5879 6.612 23.8569C6.64101 24.0049 6.80701 24.052 6.89999 23.9299C7.049 23.7351 8.873 21.1331 9.384 19.252C9.57001 18.5669 10.333 15.7871 10.333 15.7871C10.836 16.6951 12.286 17.4551 13.831 17.4551C18.427 17.4551 21.749 13.415 21.749 8.4021C21.733 3.59595 17.62 0 12.326 0L12.326 0Z" fill="#FFFFFF" fill-opacity="1.000000" fill-rule="nonzero"/>
	</g>
</svg>
